<svg width="135" height="93" viewBox="0 0 135 93" fill="none" xmlns="http://www.w3.org/2000/svg">
<path d="M44.3084 19.9819C43.9417 19.9819 43.5827 19.8123 43.3758 19.5043C42.7037 18.5059 41.4483 17.3509 40.0067 17.3931C39.3938 17.363 38.8968 16.9736 38.8793 16.4207C38.8607 15.8658 39.3357 15.4033 39.94 15.3862C42.2462 15.323 44.2132 16.9255 45.2388 18.4517C45.5562 18.9233 45.3964 19.5414 44.8819 19.8324C44.7035 19.9337 44.5043 19.9819 44.3084 19.9819Z" fill="#436B1C"/>
<path d="M66.7116 6.62034C66.5649 4.66567 64.7928 3.1204 62.6233 3.1204C62.6168 3.1204 62.6113 3.1214 62.6047 3.1214C62.643 2.82539 62.6211 2.51232 62.5172 2.18621C62.2238 1.26908 61.3438 0.564676 60.3083 0.451289C59.4589 0.358974 58.6796 0.637926 58.1334 1.13261C57.6135 0.702145 56.9326 0.433228 56.1774 0.433228C54.5585 0.433228 53.2472 1.63633 53.2472 3.1194C53.2472 3.12441 53.2483 3.12843 53.2483 3.13344C51.2814 3.26991 49.7304 4.77404 49.7304 6.61232C49.7304 6.89328 49.7709 7.1652 49.8387 7.4271C47.4974 7.5164 45.6279 9.28042 45.6279 11.4488C45.6279 12.1833 45.8457 12.8697 46.2201 13.4627C45.5009 14.0045 45.0412 14.8264 45.0412 15.7465C45.0412 16.5874 45.4298 17.3409 46.0449 17.8778C48.685 15.9 51.4587 22.5146 54.7249 27.7956C55.8096 29.5496 67.5292 27.6812 68.4629 28.7709C69.5268 27.894 70.2142 12.6218 70.2438 11.2802C70.2897 9.1279 68.7989 7.29164 66.7116 6.62034Z" fill="#88C057"/>
<path d="M68.21 26.6246L68.9905 26.1961C70.4353 25.4014 72.2392 25.4014 73.6829 26.1961L74.4633 26.6246C75.9082 27.4193 77.712 27.4193 79.1558 26.6246L81.3613 25.7255C81.6853 24.8967 81.9108 24.2966 82.0006 24.0307C84.0584 17.963 85.3839 11.5742 85.5645 5.20148C85.6368 2.63873 83.325 -1.35791 79.4842 0.45829C75.709 2.24238 73.0054 9.08473 71.1052 12.3338C68.406 16.9506 66.2716 21.9717 64.7512 27.0882C65.9092 27.3561 67.1549 27.2046 68.21 26.6246Z" fill="#EEAF4B"/>
<path d="M39.7533 25.5941L41.2255 26.4039C42.9166 27.334 45.0292 27.334 46.7203 26.4039L47.099 26.1951C48.5438 25.4004 50.3477 25.4004 51.7914 26.1951L52.5719 26.6236C53.4202 27.0902 54.3921 27.2748 55.3422 27.1936C56.0428 25.1195 55.8074 22.5266 54.7216 20.7716C51.0701 14.8665 48.0327 16.0696 45.1102 18.6333C44.5497 19.125 43.8645 19.4852 43.118 19.6809C39.9131 20.5208 37.5477 21.8945 38.893 25.6352C39.1305 25.4767 39.4611 25.4335 39.7533 25.5941Z" fill="#ED3F32"/>
<path d="M70.9891 24.4401C70.8731 24.4401 70.7538 24.4231 70.6378 24.3869C70.0653 24.2083 69.7588 23.6384 69.9537 23.1136C70.6837 21.1449 73.0283 20.0913 75.1726 20.7535C76.1785 21.0676 77.2742 20.5719 77.6157 19.6498C77.8094 19.125 78.429 18.842 79.0047 19.0216C79.5772 19.2002 79.8836 19.7702 79.6888 20.295C78.9598 22.2647 76.6174 23.3223 74.4699 22.655C73.4651 22.342 72.3694 22.8387 72.0268 23.7588C71.8703 24.1782 71.4445 24.4401 70.9891 24.4401Z" fill="#A46F3E"/>
<path d="M73.5778 17.4493C73.4618 17.4493 73.3425 17.4322 73.2265 17.3961C72.654 17.2175 72.3475 16.6476 72.5424 16.1228C72.8959 15.1685 73.6336 14.3969 74.6188 13.9513C75.6039 13.5058 76.7192 13.4386 77.7613 13.7627C78.7694 14.0778 79.8629 13.5811 80.2044 12.6579C80.3981 12.1321 81.0198 11.8502 81.5923 12.0298C82.1648 12.2084 82.4712 12.7783 82.2764 13.3031C81.5474 15.2739 79.205 16.3295 77.0575 15.6642C76.5704 15.5117 76.0472 15.5428 75.5864 15.7515C75.1255 15.9602 74.7808 16.3204 74.6144 16.768C74.46 17.1864 74.0343 17.4493 73.5778 17.4493Z" fill="#A46F3E"/>
<path d="M76.1676 10.4574C76.0515 10.4574 75.9322 10.4404 75.8151 10.4043C75.2427 10.2257 74.9362 9.65571 75.131 9.13092C75.7702 7.40302 77.8269 6.47585 79.7118 7.05985C80.073 7.17223 80.4583 7.15016 80.7987 6.99663C81.1391 6.84311 81.3942 6.5762 81.5167 6.24607C81.7105 5.72128 82.3311 5.43932 82.9058 5.61793C83.4782 5.79654 83.7847 6.36648 83.5899 6.89127C83.279 7.72913 82.6321 8.40644 81.7674 8.79678C80.9016 9.18811 79.922 9.24531 79.008 8.96134C78.2659 8.72955 77.4559 9.0958 77.2041 9.77712C77.0487 10.1945 76.6229 10.4574 76.1676 10.4574Z" fill="#A46F3E"/>
<path d="M57.6113 14.144C56.5769 15.4053 54.9449 16.8984 55.5732 19.5354L57.2632 26.6246H57.2643L58.0447 26.1962C59.4896 25.4014 61.2934 25.4014 62.7372 26.1962L63.5176 26.6246C64.1525 26.9738 64.7512 27.0892 64.7512 27.0892C65.8917 23.2531 67.3771 19.4702 69.1864 15.8719C68.3392 13.9293 66.5299 13.2791 65.2164 12.6138C65.2087 12.6098 65.2011 12.6058 65.1945 12.6028C64.3637 12.1663 64.3123 11.1237 64.9373 10.4594C65.1835 10.1976 65.2974 9.83732 65.212 9.47609L65.0796 8.9222C64.934 8.31212 64.2707 7.92279 63.6063 8.05625L56.9545 9.38679C56.289 9.52024 55.8643 10.1283 56.0099 10.7374L56.1424 11.2913C56.2299 11.6605 56.5079 11.9465 56.8604 12.086C57.6693 12.4061 58.1629 13.2339 57.7492 13.9474C57.7098 14.0146 57.6638 14.0798 57.6113 14.144Z" fill="#DAE7EF"/>
<path d="M64.5903 10.937L57.0607 12.4452C56.2299 12.6117 55.4002 12.1241 55.2185 11.3625L55.1102 10.9089C54.9285 10.1473 55.4604 9.38674 56.2912 9.22017L63.8208 7.71202C64.6516 7.54545 65.4812 8.03312 65.6629 8.79472L65.7713 9.24826C65.953 10.0109 65.421 10.7705 64.5903 10.937Z" fill="white"/>
<path d="M83.2747 25.4195L81.3646 50.5342C81.2245 53.0418 78.9664 55.0085 76.2278 55.0085H45.502C42.7634 55.0085 40.5053 53.0418 40.3652 50.5342L38.5011 26.2433C38.4694 25.6724 39.1447 25.3001 39.68 25.5941L41.1522 26.4039C42.8433 27.334 44.9558 27.334 46.6469 26.4039L47.0257 26.1951C48.4705 25.4004 50.2743 25.4004 51.7181 26.1951L52.4985 26.6246C53.9434 27.4193 55.7472 27.4193 57.191 26.6246L57.9714 26.1951C59.4162 25.4004 61.2201 25.4004 62.6638 26.1951L63.4443 26.6246C64.8891 27.4193 66.6929 27.4193 68.1367 26.6246L68.9171 26.1951C70.362 25.4004 72.1658 25.4004 73.6096 26.1951L74.39 26.6246C75.8348 27.4193 77.6387 27.4193 79.0824 26.6246L82.7898 25.1145C83.0251 25.0181 83.2878 25.1837 83.2747 25.4195Z" fill="#FBD490"/>
<path d="M51.6349 42.1445H43.9729C43.3687 42.1445 42.8783 41.696 42.8783 41.1411C42.8783 40.5862 43.3687 40.1377 43.9729 40.1377H51.6349C52.2391 40.1377 52.7295 40.5862 52.7295 41.1411C52.7295 41.696 52.2391 42.1445 51.6349 42.1445Z" fill="#E0B877"/>
<path d="M53.824 46.1583H43.9729C43.3687 46.1583 42.8783 45.7097 42.8783 45.1549C42.8783 44.6 43.3687 44.1514 43.9729 44.1514H53.824C54.4282 44.1514 54.9186 44.6 54.9186 45.1549C54.9186 45.7097 54.4282 46.1583 53.824 46.1583Z" fill="#E0B877"/>
<path d="M56.0132 50.1719H43.9729C43.3687 50.1719 42.8783 49.7234 42.8783 49.1685C42.8783 48.6136 43.3687 48.1651 43.9729 48.1651H56.0132C56.6174 48.1651 57.1078 48.6136 57.1078 49.1685C57.1078 49.7234 56.6174 50.1719 56.0132 50.1719Z" fill="#E0B877"/>
<path d="M62.5806 50.1719H60.3915C59.7873 50.1719 59.2969 49.7234 59.2969 49.1685C59.2969 48.6136 59.7873 48.1651 60.3915 48.1651H62.5806C63.1848 48.1651 63.6752 48.6136 63.6752 49.1685C63.6752 49.7234 63.1848 50.1719 62.5806 50.1719Z" fill="#E0B877"/>
<path d="M11.79 65.2244C10.05 65.2244 8.72 65.8744 7.8 67.1744C6.88 68.4744 6.42 70.2544 6.42 72.5144C6.42 74.7944 6.84 76.5644 7.68 77.8244C8.54 79.0644 9.91 79.6844 11.79 79.6844C12.67 79.6844 13.54 79.5844 14.4 79.3844C15.28 79.1844 16.23 78.9044 17.25 78.5444V82.3544C16.31 82.7344 15.38 83.0144 14.46 83.1944C13.54 83.3744 12.51 83.4644 11.37 83.4644C9.17 83.4644 7.35 83.0144 5.91 82.1144C4.49 81.1944 3.44 79.9144 2.76 78.2744C2.08 76.6144 1.74 74.6844 1.74 72.4844C1.74 70.3244 2.13 68.4144 2.91 66.7544C3.69 65.0944 4.82 63.7944 6.3 62.8544C7.8 61.9144 9.63 61.4444 11.79 61.4444C12.85 61.4444 13.91 61.5844 14.97 61.8644C16.05 62.1244 17.08 62.4844 18.06 62.9444L16.59 66.6344C15.79 66.2544 14.98 65.9244 14.16 65.6444C13.36 65.3644 12.57 65.2244 11.79 65.2244ZM36.3216 74.9444C36.3216 77.6644 35.6016 79.7644 34.1616 81.2444C32.7416 82.7244 30.8016 83.4644 28.3416 83.4644C26.8216 83.4644 25.4616 83.1344 24.2616 82.4744C23.0816 81.8144 22.1516 80.8544 21.4716 79.5944C20.7916 78.3144 20.4516 76.7644 20.4516 74.9444C20.4516 72.2244 21.1616 70.1344 22.5816 68.6744C24.0016 67.2144 25.9516 66.4844 28.4316 66.4844C29.9716 66.4844 31.3316 66.8144 32.5116 67.4744C33.6916 68.1344 34.6216 69.0944 35.3016 70.3544C35.9816 71.5944 36.3216 73.1244 36.3216 74.9444ZM25.0116 74.9444C25.0116 76.5644 25.2716 77.7944 25.7916 78.6344C26.3316 79.4544 27.2016 79.8644 28.4016 79.8644C29.5816 79.8644 30.4316 79.4544 30.9516 78.6344C31.4916 77.7944 31.7616 76.5644 31.7616 74.9444C31.7616 73.3244 31.4916 72.1144 30.9516 71.3144C30.4316 70.4944 29.5716 70.0844 28.3716 70.0844C27.1916 70.0844 26.3316 70.4944 25.7916 71.3144C25.2716 72.1144 25.0116 73.3244 25.0116 74.9444ZM54.8958 74.9444C54.8958 77.6644 54.1758 79.7644 52.7358 81.2444C51.3158 82.7244 49.3758 83.4644 46.9158 83.4644C45.3958 83.4644 44.0358 83.1344 42.8358 82.4744C41.6558 81.8144 40.7258 80.8544 40.0458 79.5944C39.3658 78.3144 39.0258 76.7644 39.0258 74.9444C39.0258 72.2244 39.7358 70.1344 41.1558 68.6744C42.5758 67.2144 44.5258 66.4844 47.0058 66.4844C48.5458 66.4844 49.9058 66.8144 51.0858 67.4744C52.2658 68.1344 53.1958 69.0944 53.8758 70.3544C54.5558 71.5944 54.8958 73.1244 54.8958 74.9444ZM43.5858 74.9444C43.5858 76.5644 43.8458 77.7944 44.3658 78.6344C44.9058 79.4544 45.7758 79.8644 46.9758 79.8644C48.1558 79.8644 49.0058 79.4544 49.5258 78.6344C50.0658 77.7944 50.3358 76.5644 50.3358 74.9444C50.3358 73.3244 50.0658 72.1144 49.5258 71.3144C49.0058 70.4944 48.1458 70.0844 46.9458 70.0844C45.7658 70.0844 44.9058 70.4944 44.3658 71.3144C43.8458 72.1144 43.5858 73.3244 43.5858 74.9444ZM63.06 70.5644C63.06 71.1844 63.03 71.8044 62.97 72.4244C62.93 73.0244 62.88 73.6344 62.82 74.2544H62.88C63.18 73.8344 63.49 73.4144 63.81 72.9944C64.13 72.5544 64.47 72.1444 64.83 71.7644L69.42 66.7844H74.46L67.95 73.8944L74.85 83.1644H69.69L64.98 76.5344L63.06 78.0644V83.1644H58.59V60.3644H63.06V70.5644ZM79.4435 60.3644C80.1035 60.3644 80.6735 60.5244 81.1535 60.8444C81.6335 61.1444 81.8735 61.7144 81.8735 62.5544C81.8735 63.3744 81.6335 63.9444 81.1535 64.2644C80.6735 64.5844 80.1035 64.7444 79.4435 64.7444C78.7635 64.7444 78.1835 64.5844 77.7035 64.2644C77.2435 63.9444 77.0135 63.3744 77.0135 62.5544C77.0135 61.7144 77.2435 61.1444 77.7035 60.8444C78.1835 60.5244 78.7635 60.3644 79.4435 60.3644ZM81.6635 66.7844V83.1644H77.1935V66.7844H81.6635ZM95.6341 66.4844C97.3941 66.4844 98.8041 66.9644 99.8641 67.9244C100.924 68.8644 101.454 70.3844 101.454 72.4844V83.1644H96.9841V73.5944C96.9841 72.4144 96.7741 71.5344 96.3541 70.9544C95.9341 70.3544 95.2641 70.0544 94.3441 70.0544C92.9841 70.0544 92.0541 70.5244 91.5541 71.4644C91.0541 72.3844 90.8041 73.7144 90.8041 75.4544V83.1644H86.3341V66.7844H89.7541L90.3541 68.8844H90.5941C91.1141 68.0444 91.8241 67.4344 92.7241 67.0544C93.6441 66.6744 94.6141 66.4844 95.6341 66.4844ZM111.361 66.4844C113.381 66.4844 114.961 67.2844 116.101 68.8844H116.221L116.581 66.7844H120.361V83.1944C120.361 85.5344 119.671 87.3144 118.291 88.5344C116.911 89.7544 114.871 90.3644 112.171 90.3644C111.011 90.3644 109.931 90.2944 108.931 90.1544C107.951 90.0144 106.991 89.7644 106.051 89.4044V85.8344C108.071 86.6744 110.201 87.0944 112.441 87.0944C114.741 87.0944 115.891 85.8544 115.891 83.3744V83.0444C115.891 82.7044 115.901 82.3544 115.921 81.9944C115.961 81.6344 115.991 81.3144 116.011 81.0344H115.891C115.331 81.8944 114.661 82.5144 113.881 82.8944C113.101 83.2744 112.221 83.4644 111.241 83.4644C109.301 83.4644 107.781 82.7244 106.681 81.2444C105.601 79.7444 105.061 77.6644 105.061 75.0044C105.061 72.3244 105.621 70.2344 106.741 68.7344C107.861 67.2344 109.401 66.4844 111.361 66.4844ZM112.771 70.1144C110.671 70.1144 109.621 71.7644 109.621 75.0644C109.621 78.3244 110.691 79.9544 112.831 79.9544C113.971 79.9544 114.811 79.6344 115.351 78.9944C115.911 78.3344 116.191 77.1944 116.191 75.5744V75.0344C116.191 73.2744 115.921 72.0144 115.381 71.2544C114.841 70.4944 113.971 70.1144 112.771 70.1144Z" fill="black"/>
<path d="M103.346 62.1301H101.546V47.8501H109.526V49.4301H103.346V54.4901H109.146V56.0701H103.346V62.1301ZM112.577 47.3901C112.844 47.3901 113.077 47.4835 113.277 47.6701C113.491 47.8435 113.597 48.1235 113.597 48.5101C113.597 48.8835 113.491 49.1635 113.277 49.3501C113.077 49.5368 112.844 49.6301 112.577 49.6301C112.284 49.6301 112.037 49.5368 111.837 49.3501C111.637 49.1635 111.537 48.8835 111.537 48.5101C111.537 48.1235 111.637 47.8435 111.837 47.6701C112.037 47.4835 112.284 47.3901 112.577 47.3901ZM113.437 51.4101V62.1301H111.677V51.4101H113.437ZM120.414 60.8901C120.68 60.8901 120.954 60.8701 121.234 60.8301C121.514 60.7768 121.74 60.7235 121.914 60.6701V62.0101C121.727 62.1035 121.46 62.1768 121.114 62.2301C120.767 62.2968 120.434 62.3301 120.114 62.3301C119.554 62.3301 119.034 62.2368 118.554 62.0501C118.087 61.8501 117.707 61.5101 117.414 61.0301C117.12 60.5501 116.974 59.8768 116.974 59.0101V52.7701H115.454V51.9301L116.994 51.2301L117.694 48.9501H118.734V51.4101H121.834V52.7701H118.734V58.9701C118.734 59.6235 118.887 60.1101 119.194 60.4301C119.514 60.7368 119.92 60.8901 120.414 60.8901Z" fill="black"/>
</svg>
