<svg width="136" height="93" viewBox="0 0 136 93" fill="none" xmlns="http://www.w3.org/2000/svg">
<path d="M44.9409 19.9819C44.5743 19.9819 44.2152 19.8123 44.0084 19.5043C43.3363 18.5059 42.0808 17.3509 40.6393 17.3931C40.0263 17.363 39.5294 16.9736 39.5119 16.4207C39.4933 15.8658 39.9683 15.4033 40.5725 15.3862C42.8788 15.323 44.8457 16.9255 45.8713 18.4517C46.1888 18.9233 46.029 19.5414 45.5145 19.8324C45.3361 19.9337 45.1369 19.9819 44.9409 19.9819Z" fill="#436B1C"/>
<path d="M67.3441 6.62034C67.1975 4.66567 65.4253 3.1204 63.2559 3.1204C63.2493 3.1204 63.2439 3.1214 63.2373 3.1214C63.2756 2.82539 63.2537 2.51232 63.1497 2.18621C62.8564 1.26908 61.9763 0.564676 60.9409 0.451289C60.0915 0.358974 59.3121 0.637926 58.766 1.13261C58.246 0.702145 57.5652 0.433228 56.8099 0.433228C55.1911 0.433228 53.8798 1.63633 53.8798 3.1194C53.8798 3.12441 53.8809 3.12843 53.8809 3.13344C51.9139 3.26991 50.3629 4.77404 50.3629 6.61232C50.3629 6.89328 50.4034 7.1652 50.4713 7.4271C48.13 7.5164 46.2604 9.28042 46.2604 11.4488C46.2604 12.1833 46.4783 12.8697 46.8526 13.4627C46.1335 14.0045 45.6738 14.8264 45.6738 15.7465C45.6738 16.5874 46.0623 17.3409 46.6775 17.8778C49.3176 15.9 52.0912 22.5146 55.3574 27.7956C56.4422 29.5496 68.1618 27.6812 69.0954 28.7709C70.1594 27.894 70.8468 12.6218 70.8763 11.2802C70.9223 9.1279 69.4315 7.29164 67.3441 6.62034Z" fill="#88C057"/>
<path d="M68.8426 26.6246L69.623 26.1961C71.0679 25.4014 72.8717 25.4014 74.3155 26.1961L75.0959 26.6246C76.5407 27.4193 78.3446 27.4193 79.7883 26.6246L81.9939 25.7255C82.3179 24.8967 82.5434 24.2966 82.6331 24.0307C84.6909 17.963 86.0165 11.5742 86.1971 5.20148C86.2693 2.63873 83.9576 -1.35791 80.1167 0.45829C76.3415 2.24238 73.6379 9.08473 71.7378 12.3338C69.0385 16.9506 66.9041 21.9717 65.3838 27.0882C66.5418 27.3561 67.7874 27.2046 68.8426 26.6246Z" fill="#EEAF4B"/>
<path d="M40.3859 25.5941L41.8581 26.4039C43.5492 27.334 45.6617 27.334 47.3528 26.4039L47.7315 26.1951C49.1764 25.4004 50.9802 25.4004 52.424 26.1951L53.2044 26.6236C54.0527 27.0902 55.0247 27.2748 55.9748 27.1936C56.6753 25.1195 56.44 22.5266 55.3542 20.7716C51.7027 14.8665 48.6652 16.0696 45.7427 18.6333C45.1823 19.125 44.4971 19.4852 43.7506 19.6809C40.5457 20.5208 38.1803 21.8945 39.5255 25.6352C39.763 25.4767 40.0936 25.4335 40.3859 25.5941Z" fill="#ED3F32"/>
<path d="M71.6217 24.4401C71.5057 24.4401 71.3864 24.4231 71.2703 24.3869C70.6979 24.2083 70.3914 23.6384 70.5862 23.1136C71.3163 21.1449 73.6609 20.0913 75.8052 20.7535C76.8111 21.0676 77.9067 20.5719 78.2483 19.6498C78.442 19.125 79.0615 18.842 79.6373 19.0216C80.2097 19.2002 80.5162 19.7702 80.3214 20.295C79.5924 22.2647 77.25 23.3223 75.1024 22.655C74.0976 22.342 73.002 22.8387 72.6594 23.7588C72.5028 24.1782 72.077 24.4401 71.6217 24.4401Z" fill="#A46F3E"/>
<path d="M74.2104 17.4493C74.0944 17.4493 73.9751 17.4322 73.859 17.3961C73.2866 17.2175 72.9801 16.6476 73.1749 16.1228C73.5285 15.1685 74.2662 14.3969 75.2513 13.9513C76.2364 13.5058 77.3518 13.4386 78.3938 13.7627C79.4019 14.0778 80.4954 13.5811 80.8369 12.6579C81.0307 12.1321 81.6524 11.8502 82.2249 12.0298C82.7973 12.2084 83.1038 12.7783 82.909 13.3031C82.18 15.2739 79.8376 16.3295 77.69 15.6642C77.203 15.5117 76.6797 15.5428 76.2189 15.7515C75.7581 15.9602 75.4133 16.3204 75.2469 16.768C75.0926 17.1864 74.6668 17.4493 74.2104 17.4493Z" fill="#A46F3E"/>
<path d="M76.8001 10.4574C76.6841 10.4574 76.5648 10.4404 76.4477 10.4043C75.8752 10.2257 75.5687 9.65571 75.7636 9.13092C76.4028 7.40302 78.4595 6.47585 80.3444 7.05985C80.7056 7.17223 81.0909 7.15016 81.4313 6.99663C81.7717 6.84311 82.0267 6.5762 82.1493 6.24607C82.3431 5.72128 82.9637 5.43932 83.5383 5.61793C84.1108 5.79654 84.4173 6.36648 84.2224 6.89127C83.9116 7.72913 83.2647 8.40644 82.4 8.79678C81.5342 9.18811 80.5545 9.24531 79.6406 8.96134C78.8984 8.72955 78.0884 9.0958 77.8367 9.77712C77.6813 10.1945 77.2555 10.4574 76.8001 10.4574Z" fill="#A46F3E"/>
<path d="M58.2438 14.144C57.2095 15.4053 55.5775 16.8984 56.2057 19.5354L57.8958 26.6246H57.8969L58.6773 26.1962C60.1221 25.4014 61.926 25.4014 63.3697 26.1962L64.1502 26.6246C64.785 26.9738 65.3838 27.0892 65.3838 27.0892C66.5243 23.2531 68.0096 19.4702 69.819 15.8719C68.9718 13.9293 67.1624 13.2791 65.849 12.6138C65.8413 12.6098 65.8336 12.6058 65.8271 12.6028C64.9963 12.1663 64.9448 11.1237 65.5698 10.4594C65.8161 10.1976 65.9299 9.83732 65.8446 9.47609L65.7121 8.9222C65.5666 8.31212 64.9032 7.92279 64.2388 8.05625L57.5871 9.38679C56.9216 9.52024 56.4969 10.1283 56.6425 10.7374L56.7749 11.2913C56.8625 11.6605 57.1405 11.9465 57.493 12.086C58.3019 12.4061 58.7955 13.2339 58.3818 13.9474C58.3424 14.0146 58.2964 14.0798 58.2438 14.144Z" fill="#DAE7EF"/>
<path d="M65.2228 10.937L57.6933 12.4452C56.8625 12.6117 56.0328 12.1241 55.8511 11.3625L55.7427 10.9089C55.561 10.1473 56.093 9.38674 56.9238 9.22017L64.4533 7.71202C65.2841 7.54545 66.1138 8.03312 66.2955 8.79472L66.4039 9.24826C66.5856 10.0109 66.0536 10.7705 65.2228 10.937Z" fill="white"/>
<path d="M83.9072 25.4195L81.9972 50.5342C81.8571 53.0418 79.599 55.0085 76.8603 55.0085H46.1346C43.3959 55.0085 41.1378 53.0418 40.9977 50.5342L39.1337 26.2433C39.1019 25.6724 39.7773 25.3001 40.3125 25.5941L41.7847 26.4039C43.4759 27.334 45.5884 27.334 47.2795 26.4039L47.6582 26.1951C49.1031 25.4004 50.9069 25.4004 52.3507 26.1951L53.1311 26.6246C54.5759 27.4193 56.3798 27.4193 57.8235 26.6246L58.604 26.1951C60.0488 25.4004 61.8526 25.4004 63.2964 26.1951L64.0768 26.6246C65.5217 27.4193 67.3255 27.4193 68.7693 26.6246L69.5497 26.1951C70.9945 25.4004 72.7984 25.4004 74.2421 26.1951L75.0226 26.6246C76.4674 27.4193 78.2713 27.4193 79.715 26.6246L83.4223 25.1145C83.6577 25.0181 83.9204 25.1837 83.9072 25.4195Z" fill="#FBD490"/>
<path d="M52.2675 42.1445H44.6055C44.0012 42.1445 43.5109 41.696 43.5109 41.1411C43.5109 40.5862 44.0012 40.1377 44.6055 40.1377H52.2675C52.8717 40.1377 53.362 40.5862 53.362 41.1411C53.362 41.696 52.8717 42.1445 52.2675 42.1445Z" fill="#E0B877"/>
<path d="M54.4566 46.1583H44.6055C44.0012 46.1583 43.5109 45.7097 43.5109 45.1549C43.5109 44.6 44.0012 44.1514 44.6055 44.1514H54.4566C55.0608 44.1514 55.5512 44.6 55.5512 45.1549C55.5512 45.7097 55.0608 46.1583 54.4566 46.1583Z" fill="#E0B877"/>
<path d="M56.6458 50.1719H44.6055C44.0012 50.1719 43.5109 49.7234 43.5109 49.1685C43.5109 48.6136 44.0012 48.1651 44.6055 48.1651H56.6458C57.25 48.1651 57.7403 48.6136 57.7403 49.1685C57.7403 49.7234 57.25 50.1719 56.6458 50.1719Z" fill="#E0B877"/>
<path d="M63.2132 50.1719H61.024C60.4198 50.1719 59.9295 49.7234 59.9295 49.1685C59.9295 48.6136 60.4198 48.1651 61.024 48.1651H63.2132C63.8174 48.1651 64.3078 48.6136 64.3078 49.1685C64.3078 49.7234 63.8174 50.1719 63.2132 50.1719Z" fill="#E0B877"/>
<path d="M12.4226 65.2244C10.6826 65.2244 9.35257 65.8744 8.43257 67.1744C7.51257 68.4744 7.05257 70.2544 7.05257 72.5144C7.05257 74.7944 7.47257 76.5644 8.31257 77.8244C9.17257 79.0644 10.5426 79.6844 12.4226 79.6844C13.3026 79.6844 14.1726 79.5844 15.0326 79.3844C15.9126 79.1844 16.8626 78.9044 17.8826 78.5444V82.3544C16.9426 82.7344 16.0126 83.0144 15.0926 83.1944C14.1726 83.3744 13.1426 83.4644 12.0026 83.4644C9.80257 83.4644 7.98257 83.0144 6.54257 82.1144C5.12257 81.1944 4.07257 79.9144 3.39257 78.2744C2.71257 76.6144 2.37257 74.6844 2.37257 72.4844C2.37257 70.3244 2.76257 68.4144 3.54257 66.7544C4.32257 65.0944 5.45257 63.7944 6.93257 62.8544C8.43257 61.9144 10.2626 61.4444 12.4226 61.4444C13.4826 61.4444 14.5426 61.5844 15.6026 61.8644C16.6826 62.1244 17.7126 62.4844 18.6926 62.9444L17.2226 66.6344C16.4226 66.2544 15.6126 65.9244 14.7926 65.6444C13.9926 65.3644 13.2026 65.2244 12.4226 65.2244ZM36.9541 74.9444C36.9541 77.6644 36.2341 79.7644 34.7941 81.2444C33.3741 82.7244 31.4341 83.4644 28.9741 83.4644C27.4541 83.4644 26.0941 83.1344 24.8941 82.4744C23.7141 81.8144 22.7841 80.8544 22.1041 79.5944C21.4241 78.3144 21.0841 76.7644 21.0841 74.9444C21.0841 72.2244 21.7941 70.1344 23.2141 68.6744C24.6341 67.2144 26.5841 66.4844 29.0641 66.4844C30.6041 66.4844 31.9641 66.8144 33.1441 67.4744C34.3241 68.1344 35.2541 69.0944 35.9341 70.3544C36.6141 71.5944 36.9541 73.1244 36.9541 74.9444ZM25.6441 74.9444C25.6441 76.5644 25.9041 77.7944 26.4241 78.6344C26.9641 79.4544 27.8341 79.8644 29.0341 79.8644C30.2141 79.8644 31.0641 79.4544 31.5841 78.6344C32.1241 77.7944 32.3941 76.5644 32.3941 74.9444C32.3941 73.3244 32.1241 72.1144 31.5841 71.3144C31.0641 70.4944 30.2041 70.0844 29.0041 70.0844C27.8241 70.0844 26.9641 70.4944 26.4241 71.3144C25.9041 72.1144 25.6441 73.3244 25.6441 74.9444ZM55.5283 74.9444C55.5283 77.6644 54.8083 79.7644 53.3684 81.2444C51.9484 82.7244 50.0084 83.4644 47.5484 83.4644C46.0284 83.4644 44.6683 83.1344 43.4683 82.4744C42.2883 81.8144 41.3583 80.8544 40.6783 79.5944C39.9983 78.3144 39.6583 76.7644 39.6583 74.9444C39.6583 72.2244 40.3683 70.1344 41.7883 68.6744C43.2083 67.2144 45.1583 66.4844 47.6384 66.4844C49.1784 66.4844 50.5384 66.8144 51.7184 67.4744C52.8984 68.1344 53.8284 69.0944 54.5084 70.3544C55.1883 71.5944 55.5283 73.1244 55.5283 74.9444ZM44.2183 74.9444C44.2183 76.5644 44.4783 77.7944 44.9983 78.6344C45.5383 79.4544 46.4083 79.8644 47.6083 79.8644C48.7883 79.8644 49.6384 79.4544 50.1583 78.6344C50.6984 77.7944 50.9684 76.5644 50.9684 74.9444C50.9684 73.3244 50.6984 72.1144 50.1583 71.3144C49.6384 70.4944 48.7784 70.0844 47.5784 70.0844C46.3983 70.0844 45.5383 70.4944 44.9983 71.3144C44.4783 72.1144 44.2183 73.3244 44.2183 74.9444ZM63.6926 70.5644C63.6926 71.1844 63.6626 71.8044 63.6026 72.4244C63.5626 73.0244 63.5126 73.6344 63.4526 74.2544H63.5126C63.8126 73.8344 64.1226 73.4144 64.4426 72.9944C64.7626 72.5544 65.1026 72.1444 65.4626 71.7644L70.0526 66.7844H75.0926L68.5826 73.8944L75.4826 83.1644H70.3226L65.6126 76.5344L63.6926 78.0644V83.1644H59.2226V60.3644H63.6926V70.5644ZM80.0761 60.3644C80.7361 60.3644 81.3061 60.5244 81.7861 60.8444C82.2661 61.1444 82.5061 61.7144 82.5061 62.5544C82.5061 63.3744 82.2661 63.9444 81.7861 64.2644C81.3061 64.5844 80.7361 64.7444 80.0761 64.7444C79.3961 64.7444 78.8161 64.5844 78.3361 64.2644C77.8761 63.9444 77.6461 63.3744 77.6461 62.5544C77.6461 61.7144 77.8761 61.1444 78.3361 60.8444C78.8161 60.5244 79.3961 60.3644 80.0761 60.3644ZM82.2961 66.7844V83.1644H77.8261V66.7844H82.2961ZM96.2667 66.4844C98.0267 66.4844 99.4367 66.9644 100.497 67.9244C101.557 68.8644 102.087 70.3844 102.087 72.4844V83.1644H97.6167V73.5944C97.6167 72.4144 97.4067 71.5344 96.9867 70.9544C96.5667 70.3544 95.8967 70.0544 94.9767 70.0544C93.6167 70.0544 92.6867 70.5244 92.1867 71.4644C91.6867 72.3844 91.4367 73.7144 91.4367 75.4544V83.1644H86.9667V66.7844H90.3867L90.9867 68.8844H91.2267C91.7467 68.0444 92.4567 67.4344 93.3567 67.0544C94.2767 66.6744 95.2467 66.4844 96.2667 66.4844ZM111.994 66.4844C114.014 66.4844 115.594 67.2844 116.734 68.8844H116.854L117.214 66.7844H120.994V83.1944C120.994 85.5344 120.304 87.3144 118.924 88.5344C117.544 89.7544 115.504 90.3644 112.804 90.3644C111.644 90.3644 110.564 90.2944 109.564 90.1544C108.584 90.0144 107.624 89.7644 106.684 89.4044V85.8344C108.704 86.6744 110.834 87.0944 113.074 87.0944C115.374 87.0944 116.524 85.8544 116.524 83.3744V83.0444C116.524 82.7044 116.534 82.3544 116.554 81.9944C116.594 81.6344 116.624 81.3144 116.644 81.0344H116.524C115.964 81.8944 115.294 82.5144 114.514 82.8944C113.734 83.2744 112.854 83.4644 111.874 83.4644C109.934 83.4644 108.414 82.7244 107.314 81.2444C106.234 79.7444 105.694 77.6644 105.694 75.0044C105.694 72.3244 106.254 70.2344 107.374 68.7344C108.494 67.2344 110.034 66.4844 111.994 66.4844ZM113.404 70.1144C111.304 70.1144 110.254 71.7644 110.254 75.0644C110.254 78.3244 111.324 79.9544 113.464 79.9544C114.604 79.9544 115.444 79.6344 115.984 78.9944C116.544 78.3344 116.824 77.1944 116.824 75.5744V75.0344C116.824 73.2744 116.554 72.0144 116.014 71.2544C115.474 70.4944 114.604 70.1144 113.404 70.1144Z" fill="white"/>
<path d="M103.979 62.1301H102.179V47.8501H110.159V49.4301H103.979V54.4901H109.779V56.0701H103.979V62.1301ZM113.21 47.3901C113.477 47.3901 113.71 47.4835 113.91 47.6701C114.123 47.8435 114.23 48.1235 114.23 48.5101C114.23 48.8835 114.123 49.1635 113.91 49.3501C113.71 49.5368 113.477 49.6301 113.21 49.6301C112.917 49.6301 112.67 49.5368 112.47 49.3501C112.27 49.1635 112.17 48.8835 112.17 48.5101C112.17 48.1235 112.27 47.8435 112.47 47.6701C112.67 47.4835 112.917 47.3901 113.21 47.3901ZM114.07 51.4101V62.1301H112.31V51.4101H114.07ZM121.046 60.8901C121.313 60.8901 121.586 60.8701 121.866 60.8301C122.146 60.7768 122.373 60.7235 122.546 60.6701V62.0101C122.359 62.1035 122.093 62.1768 121.746 62.2301C121.399 62.2968 121.066 62.3301 120.746 62.3301C120.186 62.3301 119.666 62.2368 119.186 62.0501C118.719 61.8501 118.339 61.5101 118.046 61.0301C117.753 60.5501 117.606 59.8768 117.606 59.0101V52.7701H116.086V51.9301L117.626 51.2301L118.326 48.9501H119.366V51.4101H122.466V52.7701H119.366V58.9701C119.366 59.6235 119.519 60.1101 119.826 60.4301C120.146 60.7368 120.553 60.8901 121.046 60.8901Z" fill="white"/>
</svg>
