<svg width="51" height="30" viewBox="0 0 51 30" fill="none" xmlns="http://www.w3.org/2000/svg">
<g clip-path="url(#clip0)">
<path d="M63.5 -5H-13.5V35H63.5V-5Z" fill="#B22234"/>
<path d="M-13.5 -0.384766H63.5H-13.5ZM63.5 5.76908H-13.5H63.5ZM-13.5 11.9229H63.5H-13.5ZM63.5 18.0768H-13.5H63.5ZM-13.5 24.2306H63.5H-13.5ZM63.5 30.3845H-13.5H63.5Z" fill="black"/>
<path d="M63.5 31.9232H-13.5V28.8463H63.5V31.9232ZM63.5 25.7694H-13.5V22.6924H63.5V25.7694ZM63.5 19.6155H-13.5V16.5386H63.5V19.6155ZM63.5 13.4617H-13.5V10.3848H63.5V13.4617ZM63.5 7.30783H-13.5V4.2309H63.5V7.30783ZM63.5 1.15398H-13.5V-1.92294H63.5V1.15398Z" fill="white"/>
<path d="M17.3 -5H-13.5V16.5385H17.3V-5Z" fill="#3C3B6E"/>
<path d="M-0.668471 0.230896L0.0672383 2.45859L-1.85309 1.08013H0.516146L-1.40418 2.45859L-0.668471 0.230896Z" fill="white"/>
<path d="M-0.668471 4.53864L0.0672383 6.76633L-1.85309 5.38787H0.516146L-1.40418 6.76633L-0.668471 4.53864Z" fill="white"/>
<path d="M-0.668471 8.84616L0.0672383 11.0738L-1.85309 9.69539H0.516146L-1.40418 11.0738L-0.668471 8.84616Z" fill="white"/>
<path d="M-0.668471 13.1539L0.0672383 15.3816L-1.85309 14.0031H0.516146L-1.40418 15.3816L-0.668471 13.1539Z" fill="white"/>
<path d="M1.89922 -1.92294L2.63492 0.304752L0.7146 -1.07371H3.08383L1.16351 0.304752L1.89922 -1.92294Z" fill="white"/>
<path d="M1.89922 2.38477L2.63492 4.61246L0.7146 3.234H3.08383L1.16351 4.61246L1.89922 2.38477Z" fill="white"/>
<path d="M1.89922 6.69226L2.63492 8.91996L0.7146 7.54149H3.08383L1.16351 8.91996L1.89922 6.69226Z" fill="white"/>
<path d="M1.89922 11L2.63492 13.2277L0.7146 11.8492H3.08383L1.16351 13.2277L1.89922 11Z" fill="white"/>
<path d="M4.46971 0.230896L5.20542 2.45859L3.2851 1.08013H5.65433L3.734 2.45859L4.46971 0.230896Z" fill="white"/>
<path d="M4.46971 4.53864L5.20542 6.76633L3.2851 5.38787H5.65433L3.734 6.76633L4.46971 4.53864Z" fill="white"/>
<path d="M4.46971 8.84616L5.20542 11.0738L3.2851 9.69539H5.65433L3.734 11.0738L4.46971 8.84616Z" fill="white"/>
<path d="M4.46971 13.1539L5.20542 15.3816L3.2851 14.0031H5.65433L3.734 15.3816L4.46971 13.1539Z" fill="white"/>
<path d="M7.03051 -1.92294L7.76622 0.304752L5.84589 -1.07371H8.21513L6.2948 0.304752L7.03051 -1.92294Z" fill="white"/>
<path d="M7.03051 2.38477L7.76622 4.61246L5.84589 3.234H8.21513L6.2948 4.61246L7.03051 2.38477Z" fill="white"/>
<path d="M7.03051 6.69226L7.76622 8.91996L5.84589 7.54149H8.21513L6.2948 8.91996L7.03051 6.69226Z" fill="white"/>
<path d="M7.03051 11L7.76622 13.2277L5.84589 11.8492H8.21513L6.2948 13.2277L7.03051 11Z" fill="white"/>
<path d="M9.59929 0.230896L10.335 2.45859L8.41467 1.08013H10.7839L8.86358 2.45859L9.59929 0.230896Z" fill="white"/>
<path d="M9.59929 4.53864L10.335 6.76633L8.41467 5.38787H10.7839L8.86358 6.76633L9.59929 4.53864Z" fill="white"/>
<path d="M9.59929 8.84616L10.335 11.0738L8.41467 9.69539H10.7839L8.86358 11.0738L9.59929 8.84616Z" fill="white"/>
<path d="M9.59929 13.1539L10.335 15.3816L8.41467 14.0031H10.7839L8.86358 15.3816L9.59929 13.1539Z" fill="white"/>
<path d="M12.1681 -1.92294L12.9038 0.304752L10.9835 -1.07371H13.3527L11.4324 0.304752L12.1681 -1.92294Z" fill="white"/>
<path d="M12.1681 2.38477L12.9038 4.61246L10.9835 3.234H13.3527L11.4324 4.61246L12.1681 2.38477Z" fill="white"/>
<path d="M12.1681 6.69226L12.9038 8.91996L10.9835 7.54149H13.3527L11.4324 8.91996L12.1681 6.69226Z" fill="white"/>
<path d="M12.1681 11L12.9038 13.2277L10.9835 11.8492H13.3527L11.4324 13.2277L12.1681 11Z" fill="white"/>
<path d="M14.7306 0.230896L15.4663 2.45859L13.546 1.08013H15.9152L13.9949 2.45859L14.7306 0.230896Z" fill="white"/>
<path d="M14.7306 4.53864L15.4663 6.76633L13.546 5.38787H15.9152L13.9949 6.76633L14.7306 4.53864Z" fill="white"/>
<path d="M14.7306 8.84616L15.4663 11.0738L13.546 9.69539H15.9152L13.9949 11.0738L14.7306 8.84616Z" fill="white"/>
<path d="M14.7306 13.1539L15.4663 15.3816L13.546 14.0031H15.9152L13.9949 15.3816L14.7306 13.1539Z" fill="white"/>
</g>
<defs>
<clipPath id="clip0">
<rect width="77" height="40" fill="white" transform="translate(-13.5 -5)"/>
</clipPath>
</defs>
</svg>
