<svg width="24" height="17" viewBox="0 0 24 17" fill="none" xmlns="http://www.w3.org/2000/svg">
<path d="M19.1158 10.3048C18.6942 10.594 17.6079 11.6381 15.5638 11.6381C13.5196 11.6381 12.4325 10.5965 12.0112 10.3048H12.0079C11.7025 10.5131 10.5417 11.6381 8.45458 11.6381C6.4075 11.6381 5.3225 10.5965 4.89875 10.3048H4.88958C4.54208 10.5423 3.7775 11.2477 2.40625 11.5215L3.69792 15.3915C3.78605 15.657 3.95547 15.8881 4.1822 16.052C4.40893 16.2159 4.68147 16.3043 4.96125 16.3048H19.0392C19.319 16.3048 19.5918 16.2168 19.8188 16.0532C20.0459 15.8895 20.2157 15.6586 20.3042 15.3931L21.5958 11.5231C20.2162 11.2473 19.4096 10.5065 19.1183 10.3065L19.1158 10.3048ZM22.6667 7.63813C22.3983 7.63813 22.2346 7.58813 22.0638 7.49146C20.6221 3.31188 16.6696 0.304794 12 0.304794C7.33042 0.304794 3.375 3.31354 1.93542 7.49438C1.76583 7.58938 1.60208 7.63813 1.33333 7.63813C0.979711 7.63813 0.640573 7.7786 0.390524 8.02865C0.140476 8.2787 0 8.61784 0 8.97146C0 9.32508 0.140476 9.66422 0.390524 9.91427C0.640573 10.1643 0.979711 10.3048 1.33333 10.3048C2.66667 10.3048 3.41667 9.74354 3.91333 9.37188C4.29167 9.08854 4.44792 8.97146 4.89375 8.97146C5.33958 8.97146 5.49667 9.08854 5.875 9.37188C6.37125 9.74354 7.12042 10.3048 8.45458 10.3048C9.78875 10.3048 10.5379 9.74313 11.0329 9.37104C11.4079 9.08854 11.5662 8.97146 12.01 8.97146C12.4537 8.97146 12.6096 9.08854 12.9867 9.37104C13.4821 9.74271 14.2308 10.3048 15.5642 10.3048C16.8975 10.3048 17.6454 9.74313 18.1408 9.37104C18.5179 9.08854 18.6742 8.97146 19.1175 8.97146C19.5608 8.97146 19.715 9.08854 20.0917 9.37063C20.5858 9.74313 21.3333 10.3048 22.6667 10.3048C23.0203 10.3048 23.3594 10.1643 23.6095 9.91427C23.8595 9.66422 24 9.32508 24 8.97146C24 8.61784 23.8595 8.2787 23.6095 8.02865C23.3594 7.7786 23.0203 7.63813 22.6667 7.63813ZM8.59625 3.93646L7.92958 5.26979C7.53625 6.05438 6.33917 5.46938 6.73708 4.67354L7.40375 3.34021C7.80083 2.55479 8.99083 3.14729 8.59625 3.93646ZM12.6667 4.97146C12.6667 5.85354 11.3333 5.85396 11.3333 4.97146V3.63813C11.3333 2.75604 12.6667 2.75563 12.6667 3.63813V4.97146ZM16.0704 5.26979L15.4038 3.93646C15.0088 3.14688 16.2008 2.55354 16.5963 3.34021L17.2629 4.67354C17.66 5.46729 16.4642 6.05479 16.0704 5.26979Z" fill="#676767"/>
</svg>
