<svg width="20" height="21" viewBox="0 0 20 21" fill="none" xmlns="http://www.w3.org/2000/svg">
<path d="M18.0779 2.24066C16.8368 1.00108 15.1543 0.304794 13.4 0.304794C11.6457 0.304794 9.96311 1.00108 8.72199 2.24066C7.33599 3.62443 6.25429 5.30386 6.25429 7.80348V11.1557L4.6675 12.741C4.28857 13.1195 3.72995 13.1734 3.23071 12.9753C2.7266 12.7741 2.16846 12.753 1.65059 12.9156C1.13272 13.0782 0.686873 13.4146 0.388368 13.8678C0.0898624 14.3211 -0.0429969 14.8635 0.0122364 15.4034C0.0674698 15.9433 0.30741 16.4475 0.691518 16.831C1.28803 17.4266 2.11776 17.595 2.88381 17.4196C2.70802 18.1851 2.87678 19.0143 3.47369 19.6107C3.8571 19.9957 4.36179 20.2365 4.90237 20.2923C5.44295 20.3481 5.98621 20.2155 6.44022 19.9169C6.89422 19.6182 7.2311 19.172 7.39383 18.6535C7.55657 18.1351 7.53517 17.5764 7.33325 17.072C7.13441 16.5748 7.18793 16.0175 7.56764 15.6367L9.15405 14.0525H12.5093C13.3314 14.0586 14.1487 13.9266 14.927 13.662C13.3785 11.9478 13.3711 9.35676 14.968 7.76169C16.311 6.41971 18.3572 6.22052 19.9972 7.10554C20.0479 5.34956 19.4186 3.57952 18.0779 2.24066Z" fill="#676767"/>
</svg>
